<svg viewBox="0 0 1024 1176.463" xmlns="http://www.w3.org/2000/svg"><path d="m652.36 537.592c.337-.004.736-.007 1.135-.007 7.394 0 14.59.848 21.498 2.45l-.64-.124-.52 4.72c-2.19 18.596-15.847 33.47-33.62 37.455l-.29.055c-1.223.255-2.628.402-4.068.402-9.785 0-17.993-6.754-20.216-15.855l-.03-.143c-.125-.873-.197-1.88-.197-2.905 0-5.128 1.793-9.836 4.787-13.532l-.032.04c5.89-6.843 14.34-11.34 23.846-11.99l.107-.007c2.445-.325 5.3-.527 8.2-.56h.04zm267.762-42.308c10.157 0 16.276 9.117 16.276 28.032 0 27.472-11.037 50.026-24.993 50.026-10.477 0-16.595-9.437-16.595-28.072 0-27.752 11.357-49.986 25.313-49.986zm-664.968 0c10.197 0 16.315 9.117 16.315 28.032 0 27.472-11.038 50.026-25.033 50.026-10.437 0-16.556-9.437-16.556-28.072 0-27.752 11.318-49.986 25.274-49.986zm-199.464-37.07c-1.998 15.597-4.078 31.112-6.997 45.188 13.116-.32 24.753-.64 56.424-.64l-72.38 78.378-.6 28.112c17.757-1.2 39.873-1.56 65.182-1.56 22.633 0 45.346.32 59.862 1.56 2.6-18.315 5.198-30.51 8.397-45.467-10.998.6-30.192.92-60.464.92l72.38-78.737.92-27.752c-17.472.92-33.19 1.2-60.783 1.2-29.953 0-38.99-.28-61.942-1.2zm204.982-3.637c-46.524 2.506-83.3 40.842-83.3 87.768 0 1.648.044 3.286.134 4.912l-.01-.226c-.177 1.748-.28 3.776-.28 5.828 0 33.72 27.337 61.056 61.057 61.056 1.24 0 2.47-.037 3.692-.11l-.168.008c46.52-2.415 83.325-40.722 83.325-87.626 0-1.798-.054-3.583-.16-5.354l.01.244c.187-1.783.293-3.853.293-5.947 0-33.51-27.165-60.676-60.675-60.676-1.364 0-2.718.045-4.06.134l.182-.01zm195.144-.32c-28.002 4.632-50.697 23.556-60.6 48.89l-.183.534c1.9-9.202 2.987-19.778 2.987-30.608 0-6.094-.344-12.107-1.014-18.022l.067.725c-15.197 2.696-32.957 4.454-51.05 4.87l-.415.01c.088 2.605.14 5.667.14 8.74 0 14.457-1.113 28.654-3.255 42.51l.197-1.546-6.678 45.786c-2.64 17.995-5.518 38.75-8.437 51.865h54.104c.28-7.957 2.318-20.433 3.758-31.43l4.64-31.427c3.798-20.434 20.073-44.544 32.59-44.544 7.278 0 6.998 7.04 4.96 20.153l-5.24 35.392c-2.638 17.995-5.518 38.75-8.437 51.865h54.665c.32-7.958 2.04-20.474 3.52-31.43l4.637-31.437c3.76-20.474 20.074-44.544 32.55-44.544 7.278 0 7 6.72 5.84 15.835l-13.08 91.57h49.906l17.517-104.333c3.8-25.952 1.76-49.425-27.032-49.425-27.187 4.372-49.332 22.43-59.396 46.754l-.188.513c3.48-24.392 1.44-47.265-27.072-47.265zm470.944-1.64c-47.125 2.518-84.384 41.344-84.384 88.872 0 1.68.047 3.352.14 5.01l-.01-.23c-.184 1.787-.29 3.86-.29 5.96 0 34.154 27.69 61.842 61.844 61.842 1.247 0 2.486-.037 3.715-.11l-.17.008c47.13-2.475 84.407-41.292 84.407-88.815 0-1.814-.054-3.615-.16-5.402l.01.246c.19-1.808.297-3.904.297-6.026 0-33.956-27.528-61.483-61.484-61.483-1.377 0-2.744.046-4.1.135l.185-.01zm-261.364-2.52c-5.188.09-10.188.466-15.103 1.112l.667-.073c-20.083 2.317-38.318 8.442-54.58 17.647l.716-.372 10.397 31.552c11.29-6.413 24.486-11.002 38.522-12.97l.586-.066c21.515-2.64 30.273 4 31.592 14.995.164 1.487.258 3.212.258 4.96 0 2.326-.166 4.615-.488 6.854l.03-.256-.56 2.24c-7.942-1.618-17.07-2.544-26.416-2.544-6.152 0-12.21.402-18.15 1.18l.698-.075c-19.263 1.48-36.188 10.426-48.08 23.916l-.066.078c-6.263 8.59-10.02 19.353-10.02 30.994 0 3.664.372 7.24 1.08 10.696l-.058-.342c3.226 18.162 18.893 31.776 37.74 31.776 3.633 0 7.147-.506 10.476-1.45l-.27.065c17.822-1.957 33.12-11.372 42.904-25.01l.124-.182c-.187 4.47-.617 8.66-1.282 12.77l.082-.613c-.712 4.423-1.714 8.327-3.03 12.085l.15-.488 49.745.04q-.385-7.292-.04-14.596 2.16-27.533 9.877-82.017c.44-3.444.69-7.43.69-11.473 0-4.273-.28-8.48-.823-12.604l.052.485c-3.2-25.75-25.113-38.75-57.423-38.308zm151.116-40.068-50.304 18.914-6.678 28.392-17.834.84-4.598 39.108h16.31l-8.438 60.383c-5.238 37.55 1.44 55.224 34.59 55.224 16.672-.278 32.265-4.643 45.9-12.133l-.513.258 5.798-35.99c-7.153 3.912-15.524 6.61-24.416 7.572l-.298.026c-9.877 0-11.037-5.2-8.997-19.515l7.558-55.824h33.71c1.2-8.237 5.238-35.072 6.4-39.988h-34.59z"/></svg>